HIERARCHY
ROOT Hips
{
	OFFSET	0.00	0.00	0.00
	CHANNELS 6 Xposition Yposition Zposition Zrotation Xrotation Yrotation
	JOINT Spine
	{
		OFFSET	 0.00	0.01	 0.00
		CHANNELS 3 Zrotation Xrotation Yrotation
		JOINT Spine1
		{
			OFFSET	 0.00	 2.45913012437421	 0.00
			CHANNELS 3 Zrotation Xrotation Yrotation
            JOINT Neck
            {
                OFFSET	 0.00	 2.48462964506057	 0.00
                CHANNELS 3 Zrotation Xrotation Yrotation
                JOINT Head
                {
                    OFFSET	 0.00	 0.927524780924562	 0.00
                    CHANNELS 3 Zrotation Xrotation Yrotation
                    End Site 
                    {
                        OFFSET	 0.00	 1.14999962169752	 0.00
                    }
                }
            }
			JOINT LeftShoulder
			{
				OFFSET	 0.00	 2.48462964506057	 0.00
				CHANNELS 3 Zrotation Xrotation Yrotation
				JOINT LeftUpArm
				{
					OFFSET	 0.00	 1.24881979654096	 0.00
					CHANNELS 3 Zrotation Xrotation Yrotation
					JOINT LeftForeArm
					{
						OFFSET	 0.00	2.59758046908119	 0.00
						CHANNELS 3 Zrotation Xrotation Yrotation
						JOINT LeftHand
						{
							OFFSET	 0.00	2.45542024364365	 0.00
							CHANNELS 3 Zrotation Xrotation Yrotation
							JOINT LeftHandThumb 
							{
								OFFSET	 0.00	0.00	 0.00
								CHANNELS 3 Zrotation Xrotation Yrotation
								End Site
								{
									OFFSET	 0.00	0.00	1.00000003353624
								}
							}
							JOINT L_Wrist_End 
							{
								OFFSET	 0.00	0.99999967115358	 0.00
								CHANNELS 3 Zrotation Xrotation Yrotation
								End Site 
								{
									OFFSET	 0.00	 0.00	 0.00
								}
							}
						}
					}
				}
			}
			JOINT RightShoulder
			{
				OFFSET	 0.00	 2.48462964506057	 0.00
				CHANNELS 3 Zrotation Xrotation Yrotation
				JOINT RightUpArm
				{
					OFFSET	 0.00	 1.24881979654096	 0.00
					CHANNELS 3 Zrotation Xrotation Yrotation
					JOINT RightForeArm
					{
						OFFSET	 0.00	2.59758046908119	 0.00
						CHANNELS 3 Zrotation Xrotation Yrotation
						JOINT RightHand
						{
							OFFSET	 0.00	2.45542024364365	 0.00
							CHANNELS 3 Zrotation Xrotation Yrotation
							JOINT RightHandThumb 
							{
								OFFSET	 0.00	0.00	 0.00
								CHANNELS 3 Zrotation Xrotation Yrotation
								End Site
								{
									OFFSET	 0.00	0.00	1.00000003353624
								}
							}
							JOINT R_Wrist_End 
							{
								OFFSET	 0.00	0.99999967115358	 0.00
								CHANNELS 3 Zrotation Xrotation Yrotation
								End Site 
								{
									OFFSET	 0.00	 0.00	 0.00
								}
							}
						}
					}
				}
			}
		}
	}
	JOINT LeftUpLeg
	{
		OFFSET	 1.2719394002717	 0.00	 0.00
		CHANNELS 3 Zrotation Xrotation Yrotation
		JOINT LeftLowLeg
		{
			OFFSET	 0.00	-4.3429100912261	 0.00
			CHANNELS 3 Zrotation Xrotation Yrotation
			JOINT LeftFoot
			{
				OFFSET	 0.00	-4.48767017425826	 0.00
				CHANNELS 3 Zrotation Xrotation Yrotation
				JOINT LeftToeBase
                {
                    OFFSET	 0.00	0.00	 1.51507020887566
                    CHANNELS 3 Zrotation Xrotation Yrotation
                    End Site 
                    {
                        OFFSET	 0.00	0.00	 0.75000010571191
                    }
                }
			}
		}
	}
	JOINT RightUpLeg
	{
		OFFSET	 -1.2719393604653	 0.00	 0.00
		CHANNELS 3 Zrotation Xrotation Yrotation
		JOINT RightLowLeg
		{
			OFFSET	 0.00	-4.3429100912261	 0.00
			CHANNELS 3 Zrotation Xrotation Yrotation
			JOINT RightFoot
			{
				OFFSET	 0.00	-4.48767017425826	 0.00
				CHANNELS 3 Zrotation Xrotation Yrotation
				JOINT RightToeBase
                {
                    OFFSET	 0.00	0.00	 1.51507020887566
                    CHANNELS 3 Zrotation Xrotation Yrotation
                    End Site 
                    {
                        OFFSET	 0.00	0.00	 0.749999965609858
                    }
                }   
			}
		}
	}
}
MOTION 
Frames:	10 
Frame Time: 0.02 
  -2.6140899658203125 -3.9393499755859374 4.45427001953125 153.513 60.7666 -1229.8 12.5917 24.7602 -7.62424 5.24937 6.20988 -6.65682 14.9035 11.5078 356.997 -82.0184 -72.5606 285.564 -103.3571 13.4404 369.353 -35.2243 50.5452 -6.77968 0.0 84.1312 0.0 57.8751 6.28016 22.514 0.0 0.0 0.0 0.0 0.0 0.0 105.4371 4.35292 -356.253 16.8407 42.4381 -317.389 0.0 83.9368 0.0 -30.6265 6.6548 -12.106 0.0 0.0 0.0 0.0 0.0 0.0 98.0249 -53.3198 -570.847 0.0 113.189 0.0 0.51755 -0.59420013 -23.8571 0.0 -34.2416 0.0 -16.8958 -53.6254 -47.5951 0.0 137.486 0.0 61.1256 -7.7700996 13.7997 0.0 -81.035 0.0 
  -2.615010070800781 -3.9281100463867187 4.454530029296875 153.46 60.0255 -1229.71 12.365 24.6281 -7.39648 5.32551 5.90562 -6.54241 14.8197 11.4838 356.884 -81.4246 -72.4585 286.033 -103.244 13.3874 369.607 -34.9744 50.7704 -6.81731 0.0 84.0942 0.0 57.2403 5.88483 21.5071 0.0 0.0 0.0 0.0 0.0 0.0 105.4636 4.22986 -356.195 15.9297 40.3821 -316.966 0.0 81.9358 0.0 -30.3879 8.47171 -14.7252 0.0 0.0 0.0 0.0 0.0 0.0 97.5783 -52.9877 -570.226 0.0 113.016 0.0 0.114766 -0.3029003 -24.5437 0.0 -34.271698 0.0 -17.6509 -54.4019 -48.1003 0.0 137.662 0.0 61.2038 -7.8190994 13.8555 0.0 -81.0732 0.0 
  -2.6189300537109377 -3.9247100830078123 4.4545901489257815 153.571 59.9087 -1229.66 12.5033 24.6682 -7.45431 5.4589 6.01231 -6.47536 14.8195 11.3426 356.801 -81.3884 -72.4399 286.098 -103.2509 13.3477 369.636 -34.7398 50.9121 -6.83524 0.0 83.8861 0.0 57.2644 6.12669 21.9754 0.0 0.0 0.0 0.0 0.0 0.0 105.5242 4.14658 -355.999 15.0739 38.5769 -316.728 0.0 79.8773 0.0 -30.6995 10.5243 -18.0135 0.0 0.0 0.0 0.0 0.0 0.0 97.028 -52.8358 -570.25 0.0 112.93 0.0 -0.0121161 -0.16520023 -24.9377 0.0 -34.1821 0.0 -17.8219 -54.4873 -48.2886 0.0 137.664 0.0 61.2748 -7.6865005 13.9518 0.0 -81.1901 0.0 
  -2.6257901000976562 -3.9282000732421873 4.452179870605469 153.51 60.0494 -1229.29 12.6054 24.9439 -7.52956 5.81457 5.86029 -6.46678 14.7651 11.5013 356.73 -82.1884 -72.3488 285.316 -103.5618 13.5447 369.835 -34.2978 50.7599 -6.9274 0.0 83.7644 0.0 57.2476 6.22588 22.1634 0.0 0.0 0.0 0.0 0.0 0.0 105.4964 3.9643 -355.722 14.4712 36.8156 -316.575 0.0 77.9223 0.0 -30.7255 12.4848 -21.2156 0.0 0.0 0.0 0.0 0.0 0.0 96.3162 -52.8706 -570.652 0.0 112.884 0.0 -0.184313 -0.012399673 -25.2885 0.0 -34.428802 0.0 -18.0665 -54.1847 -49.1819 0.0 138.563 0.0 38.5198 -16.496 0.613231 0.0 -63.4884 0.0 
  -2.6309100341796876 -3.9289801025390627 4.453699951171875 153.64 60.1406 -1229.21 12.851 25.0947 -7.70523 5.84726 5.83877 -6.44182 14.7871 11.4788 356.75 -82.2204 -72.3732 285.282 -103.6812 13.5068 369.887 -33.9316 50.7136 -6.91971 0.0 83.5924 0.0 57.2958 6.27379 22.5026 0.0 0.0 0.0 0.0 0.0 0.0 105.5462 3.8908 -355.576 13.7308 35.1569 -316.287 0.0 76.0362 0.0 -30.6392 14.0918 -23.5313 0.0 0.0 0.0 0.0 0.0 0.0 95.9589 -52.8969 -570.863 0.0 112.819 0.0 -0.264668 -0.0034999847 -25.5097 0.0 -34.294098 0.0 -18.0635 -54.01 -49.2166 0.0 138.461 0.0 38.0723 -16.2845 0.423941 0.0 -64.331696 0.0 
  -2.6358401489257814 -3.92864990234375 4.456889953613281 153.629 59.7734 -1228.99 12.7534 24.8461 -7.72998 5.84113 5.80201 -6.5015 14.9181 11.4908 356.717 -82.2129 -72.3887 285.343 -103.7046 13.4866 370.121 -33.4602 50.7835 -7.09722 0.0 83.3552 0.0 57.048 6.43557 21.9933 0.0 0.0 0.0 0.0 0.0 0.0 105.4244 3.74245 -355.149 13.5714 33.9452 -316.015 0.0 73.8182 0.0 -30.5781 16.4237 -26.0243 0.0 0.0 0.0 0.0 0.0 0.0 95.7514 -52.9888 -570.576 0.0 112.647 0.0 -0.811728 0.32719994 -25.8896 0.0 -34.6888 0.0 -18.6086 -54.2666 -49.5937 0.0 138.485 0.0 38.0028 -16.1318 0.534783 0.0 -64.372696 0.0 
  -2.6414498901367187 -3.929840087890625 4.462269897460938 153.447 59.656 -1228.7 12.6334 24.801 -7.69399 5.90909 5.82648 -6.57399 14.908 11.4047 356.706 -81.9796 -72.3985 285.585 -103.752 13.4095 370.272 -33.1138 50.899 -7.1018 0.0 83.0449 0.0 57.131 6.43605 21.8826 0.0 0.0 0.0 0.0 0.0 0.0 105.3923 3.70147 -354.937 12.9616 32.4736 -315.698 0.0 72.1053 0.0 -30.2865 17.5662 -28.5125 0.0 0.0 0.0 0.0 0.0 0.0 95.4591 -53.0431 -570.7 0.0 112.538 0.0 -1.28156 0.65750027 -26.217 0.0 -34.8698 0.0 -18.8487 -54.2669 -49.6996 0.0 138.428 0.0 38.5039 -16.0355 0.786329 0.0 -63.8201 0.0 
  -2.645199890136719 -3.9323699951171873 4.471449890136719 153.006 59.5589 -1228.17 12.4911 24.768 -7.67553 5.83689 5.86836 -6.71151 15.0652 11.2824 356.629 -81.8142 -72.4273 285.866 -103.7185 13.3236 370.234 -33.1019 50.9539 -6.78353 0.0 82.6582 0.0 57.091 6.41006 21.7862 0.0 0.0 0.0 0.0 0.0 0.0 105.3076 3.52766 -354.453 12.6855 31.3382 -315.767 0.0 70.0006 0.0 -30.1322 19.5304 -30.9549 0.0 0.0 0.0 0.0 0.0 0.0 95.0011 -53.2284 -571.039 0.0 112.375 0.0 -1.62339 0.8395996 -26.5138 0.0 -34.8208 0.0 -19.2364 -54.1465 -49.8621 0.0 138.364 0.0 38.4257 -15.9779 0.755361 0.0 -63.9343 0.0 
  -2.6504901123046873 -3.935299987792969 4.479320068359375 152.47 59.3252 -1227.68 12.1239 24.5938 -7.48615 5.69898 5.87501 -6.85353 15.1663 11.264 356.587 -81.2421 -72.4215 286.344 -103.6201 13.2762 370.381 -33.0418 51.0508 -6.69422 0.0 82.2346 0.0 56.8818 6.39025 21.5975 0.0 0.0 0.0 0.0 0.0 0.0 105.1528 3.4249 -354.236 12.4055 30.3005 -315.643 0.0 67.9418 0.0 -29.47 21.827 -34.8036 0.0 0.0 0.0 0.0 0.0 0.0 94.6222 -53.2676 -571.253 0.0 112.276 0.0 -1.96756 1.0469999 -26.7708 0.0 -34.771 0.0 -19.5773 -54.2043 -49.9307 0.0 138.333 0.0 38.3586 -16.0418 0.669468 0.0 -63.8057 0.0 
  -2.6551300048828126 -3.944119873046875 4.490419921875 152.386 59.1082 -1227.45 12.0068 24.1962 -7.50756 5.54807 5.85529 -6.90933 15.3473 11.406 356.516 -81.3565 -72.3931 286.261 -103.745 13.3014 370.608 -32.7927 51.0625 -6.62142 0.0 81.7054 0.0 56.8821 6.53009 21.8747 0.0 0.0 0.0 0.0 0.0 0.0 105.1769 3.30348 -353.868 12.1003 29.4121 -315.979 0.0 65.7115 0.0 -29.1533 23.9509 -37.3276 0.0 0.0 0.0 0.0 0.0 0.0 94.6859 -53.5395 -571.224 0.0 112.147 0.0 -2.22704 1.1211996 -26.8837 0.0 -34.657898 0.0 -19.9314 -54.1221 -50.2259 0.0 138.176 0.0 37.9664 -16.072 0.552376 0.0 -64.5497 0.0 
